#!OML:ASF I:\Actors\actors\Patient Classification 2\Patient 1\Session 1\actor1.ASF
:FULLY-SPECIFIED
:DEGREES
791
root -0.498327 18.6761 5.62613 -0.375399 -3.96394 -0.0230082
lowerback 14.314 1.41497 -0.798634
upperback -3.88087 1.87282 1.05603
thorax -12.4155 0.9925 1.14973
lowerneck -11.9939 -2.75635 -3.27139
upperneck 20.572 -3.65495 2.29656
head 8.47934 -1.75038 0.920119
rclavicle -9.86469e-015 5.96354e-015
rhumerus -70.1499 -27.1888 -36.6042
rradius 50.9452
rwrist 6.57039
rhand -5.82653 -39.7219
rfingers 7.12502
rthumb 19.9991 -68.7127
lclavicle -9.86469e-015 5.96354e-015
lhumerus -60.5801 22.8863 49.4926
lradius 49.7339
lwrist -1.2965
lhand -8.10026 -25.2012
lfingers 7.12502
lthumb 17.8124 4.00299
rfemur 7.51254 9.40878 13.6302
rtibia 4.77083e-015
rfoot -18.916 -14.7793
rtoes -5.22644
lfemur -1.15316 -5.62639 -15.1932
ltibia 20.2624
lfoot -22.5855 14.9968
ltoes -54.6999
792
root -0.500126 18.6725 5.61652 -0.51047 -3.93509 -0.0212444
lowerback 14.1863 1.41091 -0.79651
upperback -3.85524 1.86687 1.04758
thorax -12.3089 0.988974 1.14336
lowerneck -12.0211 -2.75504 -3.18615
upperneck 20.5935 -3.64481 2.17897
head 8.48734 -1.75069 0.867229
rclavicle 1.80397e-014 -4.37326e-015
rhumerus -70.2792 -27.5684 -37.8428
rradius 50.6144
rwrist 6.43179
rhand -5.91514 -39.6053
rfingers 7.12502
rthumb 19.9139 -68.605
lclavicle 1.80397e-014 -4.37326e-015
lhumerus -60.4286 23.2253 51.0725
lradius 49.2657
lwrist -1.23096
lhand -8.30123 -25.0488
lfingers 7.12502
lthumb 17.619 4.17285
rfemur 7.64085 9.39479 13.6574
rtibia -3.02153e-014
rfoot -18.9242 -14.7246
rtoes -5.03157
lfemur -1.00877 -5.52263 -15.1685
ltibia 20.1944
lfoot -22.5312 14.8725
ltoes -54.7002
793
root -0.500927 18.669 5.60961 -0.6368 -3.91153 0.0169925
lowerback 14.0323 1.4264 -0.797814
upperback -3.85667 1.88288 1.00446
thorax -12.2169 0.994611 1.09577
lowerneck -11.98 -2.77872 -3.1096
upperneck 20.6611 -3.67671 2.08827
head 8.50031 -1.76931 0.82093
rclavicle 7.60351e-015 -7.95139e-016
rhumerus -70.4623 -27.9124 -39.0158
rradius 50.304
rwrist 6.33907
rhand -5.94009 -39.5117
rfingers 7.12502
rthumb 19.8899 -68.5139
lclavicle 7.60351e-015 -7.95139e-016
lhumerus -60.2047 23.5137 52.584
lradius 48.7439
lwrist -1.00404
lhand -8.38475 -24.9264
lfingers 7.12502
lthumb 17.5386 4.3025
rfemur 7.76355 9.3858 13.6335
rtibia -1.43125e-014
rfoot -18.9897 -14.6201
rtoes -4.85193
lfemur -0.890162 -5.42735 -15.1914
ltibia 20.1649
lfoot -22.5343 14.7522
ltoes -54.6866
794
root -0.502056 18.6666 5.60415 -0.768105 -3.8599 0.0990311
lowerback 13.8628 1.43554 -0.892253
upperback -3.84288 1.87574 0.984748
thorax -12.1019 0.997363 1.13277
lowerneck -11.9797 -2.80308 -3.07332
upperneck 20.7734 -3.70173 2.00211
head 8.53661 -1.78692 0.782922
rclavicle -1.16041e-014 -1.86858e-014
rhumerus -70.4898 -28.1461 -40.2647
rradius 49.9776
rwrist 6.24551
rhand -6.04584 -39.4783
rfingers 7.12502
rthumb 19.7883 -68.491
lclavicle -1.16041e-014 -1.86858e-014
lhumerus -59.9615 23.8646 54.0754
lradius 48.1704
lwrist -0.558507
lhand -8.65055 -24.7954
lfingers 7.12502
lthumb 17.2828 4.45617
rfemur 7.90452 9.35034 13.5565
rtibia 1.74931e-014
rfoot -19.0238 -14.5354
rtoes -4.91601
lfemur -0.754712 -5.48761 -15.2884
ltibia 20.1223
lfoot -22.5575 14.7527
ltoes -54.7385
795
root -0.503347 18.6632 5.59876 -0.958303 -3.78927 0.183226
lowerback 13.7447 1.43642 -1.02361
upperback -3.78973 1.85448 0.99983
thorax -11.9754 0.997334 1.2315
lowerneck -12.0223 -2.82256 -3.05272
upperneck 20.8519 -3.70303 1.86505
head 8.5681 -1.79948 0.732509
rclavicle 5.54112e-015 -7.15625e-015
rhumerus -70.3252 -28.2684 -41.5744
rradius 49.5956
rwrist 6.18453
rhand -6.12324 -39.4238
rfingers 7.12502
rthumb 19.7139 -68.4442
lclavicle 5.54112e-015 -7.15625e-015
lhumerus -59.6278 24.2771 55.6115
lradius 47.4922
lwrist -0.0113782
lhand -9.0598 -24.754
lfingers 7.12502
lthumb 16.8889 4.53158
rfemur 8.11853 9.30318 13.4851
rtibia 1.59028e-015
rfoot -19.0435 -14.4413
rtoes -4.8466
lfemur -0.55397 -5.54137 -15.3861
ltibia 20.0796
lfoot -22.5497 14.6833
ltoes -54.8466
796
root -0.504354 18.6581 5.59257 -1.15225 -3.70808 0.225297
lowerback 13.6636 1.43135 -1.07898
upperback -3.74471 1.83793 1.00263
thorax -11.8773 0.993236 1.27178
lowerneck -11.9947 -2.81834 -3.032
upperneck 20.8254 -3.68822 1.80442
head 8.55204 -1.79732 0.710809
rclavicle -9.21864e-015 3.57812e-015
rhumerus -70.155 -28.4454 -42.7792
rradius 49.1145
rwrist 6.16203
rhand -6.3967 -38.9416
rfingers 7.12502
rthumb 19.451 -67.9887
lclavicle -9.21864e-015 3.57812e-015
lhumerus -59.1755 24.5719 57.1748
lradius 46.7779
lwrist 0.525812
lhand -9.35938 -24.7174
lfingers 7.12502
lthumb 16.6005 4.59259
rfemur 8.33529 9.24582 13.46
rtibia -1.27222e-014
rfoot -19.1135 -14.3049
rtoes -4.30463
lfemur -0.373429 -5.37527 -15.3895
ltibia 20.0474
lfoot -22.4255 14.3956
ltoes -54.9218
